/* XPM */
static char *_da16fa731054a07ecfd143d171d6a335wuJwOoeWmuLBE7V[] = {
/* columns rows colors chars-per-pixel */
"31 41 21 1 ",
"  c None",
". c black",
"X c gray10",
"o c gray19",
"O c #753D00",
"+ c #2E0049",
"@ c #520F79",
"# c gray39",
"$ c #93002F",
"% c #FF0051",
"& c #60B600",
"* c #FFC216",
"= c #D7FF00",
"- c #FFF200",
"; c #8A2E9C",
": c #F66895",
"> c #F0FFA1",
", c #E9B8E1",
"< c #FFFCC9",
"1 c #FFE0FA",
"2 c white",
/* pixels */
"                               ",
"  ..                        .. ",
" .##...                  ...##.",
" .o###...   ........   ...####.",
" .o,,###....########....###,,#.",
" .X1,,,..ooooo#########..1,,,#.",
" ..X11.oooooooooo########.1,#..",
"  .X1.oooooooooooooo######.1#. ",
"  .X.ooooooooooooooooo#####.#. ",
"  ...ooooooooooooooooooo###... ",
"   .Xooooooooooooooooooooo##.  ",
"   .Xooooooooooooooooooooo##.  ",
"  .Xooo.....oooooooo.....oo##. ",
"  .Xoo.2&.&2.oooooo.2&.&2.o##. ",
"  .Xoo22=.=22oooooo22=.=22o##. ",
"  .Xooo2>.=2oooooooo2>.=2ooo#. ",
"  .Xooooo>ooooo11ooooo>ooooo#. ",
"  .Xoooooooooooooooooooooooo#. ",
"   .Xooooooooooooooooooooooo.  ",
"   .XXoooooooooooooooooooooo.  ",
"    .XXoooooooooooooooooooo.   ",
"    .XXoooooooooooooooooooo.   ",
"     .XXXXoooooooooooooooo.    ",
"      .XXXXXooooooooooXXX.     ",
"       ..XXXXXXXXXXXXXX..      ",
"      ..$...XXXXXXXX...:..     ",
"     .$%%$$$........$%%%::.    ",
"    .X.$%%%%$$.-<.$$%%::%:#.   ",
"    .X.$$%$$$.+*-+.$$$:%%.#.   ",
"   .XXX.$$....++++....%%.oo#.  ",
"   .XXX...++++@@@@+++;...oo#.  ",
"   .XXX.+++@@@@@@@@@;;;;.Xo#.  ",
"   .XX.$OOOOOOO-<OOOOOOO%.X#.  ",
"    ..$.+++++++++@@@@@@;.:..   ",
"     .$.+++@@@@@@@@@@@@;.:.    ",
"    .%$.++++@@@@@@@@@;;;.%:.   ",
"   .%$$....+++@@@@@;;....%%:.  ",
"   ...$$$....+.........$$%...  ",
"      ....XXXX#  .XXX#....     ",
"         ...###  ..###.        ",
"         .XXoo#  .Xoo#.        "
};
