/* XPM */
static char *_664dfc2db3d4fcf8d6e1b434d574e80zYoy92kopep8QKHA[] = {
/* columns rows colors chars-per-pixel */
"33 31 138 2 ",
"   c None",
".  c #4F2713",
"X  c #4E2913",
"o  c #532C14",
"O  c #542E19",
"+  c #57321C",
"@  c #59341C",
"#  c #5D381E",
"$  c #5B3721",
"%  c #5E3C24",
"&  c #613D25",
"*  c #613E29",
"=  c #624127",
"-  c #64442C",
";  c #674B2F",
":  c #694A2F",
">  c #674731",
",  c #654A35",
"<  c #6A4D31",
"1  c #634C38",
"2  c #6C4E39",
"3  c #6E5134",
"4  c #66513D",
"5  c #68523F",
"6  c #705335",
"7  c #735539",
"8  c #75593B",
"9  c #785A3E",
"0  c #675341",
"q  c #695542",
"w  c #6C5843",
"e  c #6F5F4D",
"r  c #7A5E43",
"t  c #6F604E",
"y  c #7D6144",
"u  c #73624E",
"i  c #7F6548",
"p  c #746552",
"a  c #796653",
"s  c #7A6A56",
"d  c #7C6D5C",
"f  c #7E705E",
"g  c #806649",
"h  c #836A4D",
"j  c #876E52",
"k  c #886F52",
"l  c #806F5E",
"z  c #877053",
"x  c #8A7256",
"c  c #81715F",
"v  c #8C765A",
"b  c #8E795C",
"n  c #907A5D",
"m  c #827564",
"M  c #857866",
"N  c #867968",
"B  c #867868",
"V  c #867A69",
"C  c #887A68",
"Z  c #887A69",
"A  c #887B69",
"S  c #897B6B",
"D  c #8A7C6B",
"F  c #897C6C",
"G  c #927C61",
"H  c #937D62",
"J  c #947E62",
"K  c #957F62",
"L  c #947F63",
"P  c #957F63",
"I  c #967F63",
"U  c #947F64",
"Y  c #957F64",
"T  c #8D806F",
"R  c #8D816F",
"E  c #8F816E",
"W  c #948064",
"Q  c #958064",
"!  c #948065",
"~  c #958065",
"^  c #958165",
"/  c #968064",
"(  c #968164",
")  c #968065",
"_  c #978065",
"`  c #968165",
"'  c #978165",
"]  c #958166",
"[  c #978266",
"{  c #968267",
"}  c #978267",
"|  c #978367",
" . c #988167",
".. c #988267",
"X. c #988367",
"o. c #988468",
"O. c #998468",
"+. c #9A866A",
"@. c #9C876C",
"#. c #8E8270",
"$. c #8F8270",
"%. c #8F8273",
"&. c #918374",
"*. c #918576",
"=. c #938676",
"-. c #928677",
";. c #948778",
":. c #93887B",
">. c #94897B",
",. c #968B7B",
"<. c #968B7C",
"1. c #978B7E",
"2. c #978C7C",
"3. c #978C7D",
"4. c #968A7B",
"5. c #988B7E",
"6. c #988D7E",
"7. c #988E81",
"8. c #998F81",
"9. c #9B9082",
"0. c #9B9182",
"q. c #9A9183",
"w. c #9C9384",
"e. c #9E9487",
"r. c #9E9488",
"t. c #9F9488",
"y. c #9F9588",
"u. c #9F968A",
"i. c #A09589",
"p. c #A09689",
"a. c #A09789",
"s. c #A0968A",
"d. c #A1978A",
"f. c #A1978B",
"g. c #A1988B",
"h. c #A2988C",
"j. c #A2998C",
"k. c #A3998D",
/* pixels */
"  $ l a a @ o o o o o @   o o o o o o o o   o o o o o o % a a l @ ",
"  - B l l $ 6 6 3 6 6 h @ h 3 3 6 6 6 3 8 # g 3 < 6 6 3 * d d B * ",
"  < >.S D & y h h h h j - b h h h h g g v - z g h h h h - F D >.* ",
"  2 8.;.=.* g h h h j G : I h h h h h h b - v h h h h h - &.&.8.> ",
"  2 i.=.=.- g v b b b { 8 G x G n n b v b < v v v v v b > -.-.r., ",
"  < k.0.0.* h b v G b { 8 I b b v n b b G < b b b b v b > >.7.u.> ",
"  2 k.i.i.- h I I I I @.7 O.I I / I L I U < W U U U U U > i.i.i.> ",
"  2 k.i.i.* h I Y O.Y @.7 { I I / / W W { < O.I ! ! I I > r.i.f.2 ",
"  2 k.i.a.& g I I I  .O.7 O.I I I I I I O.: Y J I U W / < e.t.i.> ",
"  - k.6.5.& g n n n n O.7 O.b n b b b v  .> O.n b b n v - 5.6.i.> ",
"  - a.2.5.# g n n n n  .7 I n n n b n n  .: Y n b n b b - >.<.t., ",
"  * 0.E { # y n n n n I < I n v b b v n / - I n b b b n - R #.q., ",
"  * 6.$.$.@ 9 h h h h x 3 x h h j h h h v & v h h h h h - #.D q.> ",
"  & ,.D D O 9 h h h h z & x h h h h h h v @ k h h h h h * B B <.> ",
"  & D D D o 9 h h h g h # k g r r r r r x @ x h i h h h & B B &.% ",
"  # O O o o 9 9 9 9 9 g o 6 & # % $ $ + r O 9 8 7 5 7 < $ o o o $ ",
"  @ ,.4.,.o o o O O o o o o o E #.D &.@ o o o X o o X X + ,.,.,.% ",
"  # R d f O = % = = = = o % o f o o s o % o 3 ; ; = - - o f s R $ ",
"  % R d d o ; 6 8 6 6 8 o < o u d o e o % o 8 6 3 6 6 3 X d s V $ ",
"  = m p p o ; < < 3 3 8 o < o u t o e o % o 8 < ; < < 3 X p p f $ ",
"  % d u p o = 3 3 ; 3 8 o < o 5 0 s q o % o 8 ; < < 3 < o p t d o ",
"  + p t t o = < < 3 3 8 o ; = o o o o & < o 8 < < 3 ; 3 X t t p o ",
"  o u w 5 o = ; ; ; ; 8 X < < = = = = ; ; o 7 ; ; ; ; ; X w t t o ",
"  o u w 8 X = ; ; ; ; 6 o < ; ; < < ; < < o 8 ; ; ; ; ; X w 4 t . ",
"  X u w q X % , ; ; ; 8 X ; < < ; ; < ; ; o 7 , ; < ; ; X w w u . ",
"  . $ $ + + & & & % % 8 X = % % = % = = = o 7 % % % % % @ @ + + . ",
"  . M m m V X X X o o o o o o o o X o X X o o o o X X X M f m M . ",
"  X t t t p X s d d l m M A F F T F A V V V V f f d d X p t t t . ",
"  . 1 1 1 u o 4 4 4 4 0 0 q q q 5 q q q q q q q 0 0 0 o p ; 1 1 . ",
"  . . . X X X X . . . . . . . . X X . X X X . . X X X o X X X X . ",
"                                                                  "
};
