/* XPM */
static char *_783f0a588344b31bf73d5cd779e0e97RHvjNE96En69PD9F[] = {
/* columns rows colors chars-per-pixel */
"60 69 145 2 ",
"   c #0E0300",
".  c #120600",
"X  c #150A04",
"o  c #1A0C04",
"O  c #160D0A",
"+  c #1A0E09",
"@  c #1D120B",
"#  c #1F1510",
"$  c #1F1810",
"%  c #22150E",
"&  c #24180E",
"*  c #221711",
"=  c #251B14",
"-  c #291E15",
";  c #261E19",
":  c #291E19",
">  c #272115",
",  c #292117",
"<  c #26221A",
"1  c #2C231C",
"2  c #31251E",
"3  c #31281F",
"4  c #2D2621",
"5  c #2F2923",
"6  c #312721",
"7  c #322A25",
"8  c #382C25",
"9  c #342D29",
"0  c #392E2A",
"q  c #3A3026",
"w  c #36312D",
"e  c #3A322D",
"r  c #373332",
"t  c #3B3634",
"y  c #3D3936",
"u  c #3B3738",
"i  c #3D3A3A",
"p  c #42352F",
"a  c #423732",
"s  c #433A31",
"d  c #403933",
"f  c #403931",
"g  c #403835",
"h  c #413A34",
"j  c #423B35",
"k  c #413936",
"l  c #423837",
"z  c #403B37",
"x  c #433C36",
"c  c #453C37",
"v  c #443D37",
"b  c #413A35",
"n  c #493C36",
"m  c #403B38",
"M  c #423A38",
"N  c #433B38",
"B  c #433B39",
"V  c #443A38",
"C  c #413C38",
"Z  c #403C39",
"A  c #413C39",
"S  c #423D39",
"D  c #413E39",
"F  c #403C3B",
"G  c #423D3A",
"H  c #433E3A",
"J  c #423F3A",
"K  c #423E3B",
"L  c #433E3B",
"P  c #443F39",
"I  c #453D3A",
"U  c #443F3B",
"Y  c #463E3B",
"T  c #423C3C",
"R  c #433D3D",
"E  c #403F3D",
"W  c #423E3D",
"Q  c #403E3F",
"!  c #433F3E",
"~  c #423E3F",
"^  c #443F3C",
"/  c #463E3C",
"(  c #473F3C",
")  c #473F3D",
"_  c #423D3B",
"`  c #493E38",
"'  c #483E3B",
"]  c #4A4037",
"[  c #45403A",
"{  c #46413B",
"}  c #42413F",
"|  c #45403C",
" . c #44403D",
".. c #45403D",
"X. c #46413D",
"o. c #45423D",
"O. c #44403F",
"+. c #46413E",
"@. c #47423E",
"#. c #46433E",
"$. c #47423F",
"%. c #44413E",
"&. c #48413B",
"*. c #4A433B",
"=. c #4D433A",
"-. c #49423C",
";. c #48433D",
":. c #4A433D",
">. c #48403E",
",. c #49413E",
"<. c #48433F",
"1. c #49443E",
"2. c #4B443E",
"3. c #4F463F",
"4. c #4A413E",
"5. c #3F3D40",
"6. c #413F40",
"7. c #433F40",
"8. c #433E40",
"9. c #424041",
"0. c #434142",
"q. c #454140",
"w. c #444041",
"e. c #464040",
"r. c #454241",
"t. c #484340",
"y. c #4A4643",
"u. c #4E4540",
"i. c #4F4641",
"p. c #4A4543",
"a. c #4D4844",
"s. c #4C4945",
"d. c #4E4B49",
"f. c #514744",
"g. c #544B42",
"h. c #554C43",
"j. c #534C46",
"k. c #524A46",
"l. c #504748",
"z. c #524C4A",
"x. c #594E4B",
"c. c #56514E",
"v. c #5B504A",
"b. c #59514E",
"n. c #595051",
/* pixels */
"y y y [ 5.i 9.0.r.y.) j c 6 3 & , 6 8 6 p n u.u.2.2.*.v y y #.{ [ y t y [ [ E E D i u y y y y r u r t u y y u t t y y l ",
"z y y i 5.i 5.9. .p.Y &.e q & - X & 2 2 : 2 6 4 9 t &.2.#.} [ y { #.#.#.o.#.{ y j i t t u y y y u t u t i y i y y j y y ",
"[ y i E i 5.! 9.q.! V e 8 - & - 1 > & @ * 1 7 1 7 7 7 3 4 5 w t y { #.{  .2.{ z D D D z y y y y y y t y j y y t a a y t ",
"i y i E 5.! 7. .! D t 6 3 % - - 3 3 1 , 2 - @ . + $ , 1 4 1 < 4 1 5 7 w y #.a.a.o.2.>.>.Y D y d z s t e e w e w 5 4 4 4 ",
"E i i E 5.5.! ! V i 9 6 & - - 8 s e 3 3 1 3 5 7 , < = $ + . O # 5 < < < 5 7 7 8 z v ' >.>.Y j t e e w 7 9 3 5 1 6 1 1 : ",
"i D i E E E  .D i 7 9 # % 3 3 =.h.&.s e e 8 7 4 5 7 7 7 1 < < 4 ; # @ ; < < < 4 4 4 7 w e e 7 1 1 , < < , , , < ; = ; ; ",
"i i E E } 9.E y t 4 < X - 8 ] h.j.{ d D 1.o.a y t e t e t 9 8 7 4 < , 1 1 < ; ; ; ; ; ; : < ; = , > $ < , 1 1 < 1 4 4 5 ",
"i E 5.E } E i t 1 9 X - 8 p x.3.R j D o.o.D I 8.2.{ v v y z j V z y t w 7 5 4 1 4 1 : = = = - 1 , < 1 1 5 5 5 9 e u a y ",
"i 7.I f.l 8.l 9 7 X = 6 0 x.k.a t T 8.! T T I 8.8.I 8.8.8.u.q.2.&.z v d e f e 8 3 1 1 1 , = - , < < 5 w i p.d.p.Y ! ! u ",
"5.7.8.8.8.0 l 9 ;   7 2 n.f.a u.u 8.8.8.5.T 8.8.F V V V / R R { 2.{ v v v v f q 7 1 < 1 , = = > < < 5 r 7.d.d.d.! ! 7.i ",
"i i 8.8.l l 6 8 O * 9 l x.u.t I u 8.5.i 8.8.5.u 8.8.8.8.8.p.r.r.D j j y t e e 9 2 1 1 1 , = - , 5 < 4 r q.z.d.0.i i 5.i ",
"i E 8.8.V 0 : = O 0 e n.l R T t F u 5.8.i 5.5.F 8.V 8.I 8.8.#.} R D y j t t e 8 2 1 1 1 - - - 1 5 < 4 r 9.d.d.p.5.5.i i ",
"i s.i y ' : 6 o 6 8 l.x.y V i i i ! i i i i ! D F u i i D D D J R D D j t t t 9 5 1 1 1 - - - , 5 < 5 r u d.z.l.8.8.i T ",
"r.y.V j 0 0 % % 6 ' l./ l u 5.i i i i T i y i ! T V i T E E J J y y y t t e w 5 4 4 1 < < - , , < < 5 r l p.d.d.8.8.i i ",
"8.V V y : 6 . 6 8 x.' a u 5.5.u y y i y i u y y y y i D D y y E V y i t t e w 9 4 4 1 1 - - , 1 1 1 < w a p.l.p.7.u i V ",
"I I a 7 0 . : 0 ' ` ) y u 6.r 5.i u t i i V i y y y i V E D y E y u u t w t w 5 4 1 1 < , , < , 1 > 1 w y p.l.l.8.8.i i ",
"I a 0 7 : O 4 t x.D y j D D y i y y u u u 5.u u u u u u i 5.i u u u l r r r 9 9 4 1 2 , , , , , 1 3 5 5 t [ y.s.0.5.u 5.",
"p n 0 : O ; 0 8.y.y i y V i y y i i i u u u u 5.5.u u 5.5.i i i r l r r r r 9 9 4 1 1 , , , , , 1 1 5 9 t E y.y.0.i i i ",
"a p 6 * O 6 l n.! i i u i ! u y y y u u 5.u u 5.5.5.u i 5.5.u i l r r r r r 9 4 4 < 1 , , , , 2 > 3 5 9 t E y.0.y.9.i i ",
"s 2 6 X 4 7 p.z.u i V u u i y t i y u u u u u u u 5.i 5.i 5.i u t l u r r 9 9 4 4 1 1 1 , , , 1 1 3 5 w u } 0.y.0.9.i u ",
"0 1 ; X 4 I n.8.u y V i y T T u u u u u u u u u u u u u i i i i t t t 0 r 9 7 5 4 4 : : - , 1 , 1 5 5 r y J y.y.0.5.u i ",
"6 ; . = 9 l.p.T y i T i u ! u u u u u r u u u u u u u 5.D i i y t t t r r 9 7 5 < 4 < ; , 1 1 1 1 5 9 w y J y.y.0.5.i u ",
"2 X o 1 Y k.V ! u u 5.i i T u i u u u u u u u u i u i i i E i i t t t r r w 7 5 1 4 1 : > , 1 1 1 5 9 w y J y.y.6.5.u 5.",
"1   6 < b.p.D t i u i i i T u 8.u E u u u u u 5.u i i ! i i D y t t t r r r 7 5 1 1 1 : > 1 3 1 5 5 9 w y J y.y.7.i u u ",
". 1 < 2.u.Y y y i i i i i u i i r y E r r i u u i i u E i i i y e e e t e w 7 4 3 1 > , , 1 3 1 4 5 9 e i  .0.p.5.i i i ",
"X , e x.Y {  .u i i i i V u u u y r y r i r y u u i u y V D i y t t e t e 9 5 4 1 1 1 > 1 1 1 1 5 7 9 t D q.y.q.5.5.i i ",
"; 4 a.k.t y ! u u u u 5.y y y y r y r E u y u u i i E y D i z y t t t r w 9 5 1 1 1 , , 1 1 3 3 7 7 w y ! p.p.9.i i i u ",
"7 Y k.y y u u T T T u u i y y t y r r r r u u y i i y i i D t t l t t t w w 7 1 1 1 1 1 3 1 3 , 7 9 w j r.y.p.7.i i i i ",
"9 p.t.r p.l u 8.i i i i u y t z y r w y y y r i i i i y y y y y y y f w q 5 3 1 , 1 1 1 1 4 6 1 7 0 r T y.d.0.! i i i y ",
"u.p.I t ! u 7.u u 5.i i y y z t r y y y w y y y i i i i y y t y r f r w 9 5 1 1 , 1 , 1 2 2 6 6 9 0 u ! s.s.0.! i i y u ",
"n.I T t r u 7.u i i i u y t t t y r y y y y y i i y i i y t d t y f w w 5 5 5 1 1 , , 1 1 7 6 7 8 t y >.y.s.} i i u i i ",
"l.r F u u 7.u 8.i u i i y t t t y y y y y y y i i i i i t t t t f w w 9 5 5 1 1 1 1 , 1 1 7 6 6 0 y D t.y.y.} i i y i i ",
"E i E i i i i i u F l u u u t t t t i y i i i i i i y t t y t p w t w 5 5 5 1 1 1 1 : 1 6 6 6 0 e V o.p.p.#. .i i i i u ",
"y u u u y y u i l u u u t u t t t t i i u i D E i V y y t t e t t w w 5 5 > 1 1 1 : 1 1 6 6 6 w y D p.y.a.r.! i y i y i ",
"u y y y y i i y u u u u u t t t t t i y i i E i D i t t a t t e w w 9 5 3 3 1 1 1 1 1 2 6 4 7 e y  .y.y.y.p.! i i y y u ",
"u y i u y i y i i u l u t u t t t u y y i i i E i i y t y t e t w w 5 5 3 > 1 1 < 1 1 1 4 6 7 t y ! p.y.r. .V u i i i V ",
"u y y y y i i E y u y t u t u t y y y y i D i i i u u t t t t p w w 7 5 1 1 1 < < 2 1 1 4 7 9 e y D t.y.p.o.i i i i i i ",
"u u u u y u y y y y t t t t t u y t y i i  .E E V i t t t t e t w w 5 5 1 1 1 1 1 1 1 1 7 8 8 r y V q.y.y.o.! i i i y i ",
"u r E r u u y y u u u t t u t u y y i i ! i E E i y t t t r e w q 7 5 1 1 1 < > 1 2 1 1 7 9 0 t y D o.y.y.q.! T j i i V ",
"u E r E u u u u u t u r t t u l z y y i i i E [ i y t t t e 0 w w 5 5 1 1 1 1 1 < 5 1 5 8 e 0 t y D o.y.t.R D i i i i i ",
"y y r u u u u r t t t r u t u t y z i D V ! i i D y r r r r w w 5 5 3 1 1 1 < 1 1 2 1 6 0 w r t y D r.y.p. .i i i i i i ",
"u u E r u u y u y r t t t u t y y y i i i ! E E i y y r r r w 5 5 3 3 1 1 1 , 1 1 1 1 4 9 9 r t y D p.y.p. .! V V u i i ",
"u y r E E r u r u y t u u u y u z y D i  .i E i E y t w w w 5 5 5 5 1 1 1 , 1 , < 2 6 4 5 9 w t y D #.y.r.o.i i i i i i ",
"y u E r r E r E u u u t u u u l y y i D i E i E E D t r w w 5 5 1 1 1 > , , , , 1 1 4 4 5 9 9 t y Y p.y.p.! ! i i i y V ",
"r E r r E E r E y t t y y u u u i y i i  . .i E y y r r w w 5 5 1 3 1 1 , , , 1 1 2 4 4 7 9 w r y D p.a.p.D D i y i i i ",
"E r E E E r E r y y u u y i V i y y ! i ! i i E E y t r r w w 5 5 1 3 , , 1 1 1 1 1 4 4 5 9 w t D ! y.a.p.! i ! i i i i ",
"r E E u u y r y u y y y u i i V y D ! ! Q  .Q E D t y r w w 5 5 1 3 , 1 1 , 1 1 1 6 4 4 5 9 r u i o.y.d.p.D i V V i i V ",
"E r r u E E r E y u u y i i i V i D i E  . .E E D y t t w r w 5 5 1 1 , , , , 1 6 1 1 1 5 r w r i o.y.a.p.! i i i i y i ",
"r E r E r r E r E y u u u y E E i E i E J } } D D y y r w w w 5 3 1 1 1 , , 1 , : 4 4 4 7 0 r r j } a.a.q.D T T u V T u ",
"E r y y E r E r y E u E E E u E i E i E J } D } D y y f t r w 5 1 3 1 1 1 1 1 > : 4 4 4 7 0 e t i #.a.a.o.! V T l i u i ",
"r E y y r E E r y y y y u E E E E E } } } } } } y y y r r r w 5 1 > , , , , , 1 4 1 4 4 9 w t t D #.s.y.q.D V ! u V u V ",
"E y y E E E r E y r y E y u E E D E D E } } y.} E E f y r w 5 5 1 3 1 1 , , 1 1 1 4 4 4 7 w t t D #.s.y. .! ! i T u i i ",
"E y E r E r E r y y t D E E E E E y D E r.r.o.o.D D D t w r 5 5 < > 5 > > 1 1 1 1 1 5 4 4 r u t E #.d.s.#.E 5.i u T i u ",
"E y E r E E E r E D i D y E E D #.[ [ o.p.r.o.{ E D y w r w 9 5 < > 3 > > > 1 > 1 5 4 4 9 0 t u #.s.d.s.E E E 5.8.u 5.5.",
"E r E E r E r E y y y y y D y D [ z [ s y y t e w w w 5 5 5 5 5 > > > > , , , 1 1 1 1 4 7 t l ' y.d.d.#.E D E i u i i i ",
"E E E E E E E E E y y D f f y y e e t e q 3 4 3 3 < > > > 1 < 1 > 3 1 > > , 1 , 1 1 4 4 6 p l n s.d.c.#.D D Q E 5.i i i ",
"i i E [ V T T a y y y j y e w q 2 2 6 3 6 3 2 - - , - = = - = = > > , > - , 1 - : 4 4 6 8 p 8.8.a.c.a.o.! ! i E 5.u i i ",
"[ [ D z i D V V w w 9 7 9 8 1 < 1 - , - - , - - % & - - , , 1 1 > 3 , , , 1 1 : 2 : 4 6 7 0 p l a.n.c.p.9.y.9.i 5.i i 5.",
"t y y t y t p 6 9 9 9 5 : - : 1 1 - - + o % % & = , , , 2 2 1 1 3 3 3 3 4 5 1 : : ; 2 : 2 6 8 p Y u.k.a.p.D i q.i i i E ",
"e 9 7 1 1 1 2 2 > > = = 1 < * @ . X % - 1 , 2 : 1 1 1 1 3 3 7 7 q q q 7 7 7 6 1 : : : : : : 2 2 4 7 y k.x.p.V ! i i i i ",
"3 2 2 1 2 2 : - : - * % X X @ = ; : : < 1 < 1 < 7 4 4 7 w e t s z s s y y r w 7 6 4 : ; - : - - : 6 6 9 R k.d.o.o.i y y ",
", , 2 1 - % % o o o o % : 6 2 - 6 5 4 : 4 7 9 w e w e y [ } 2.#.#.#.} } V V i i 9 9 6 4 - : & = 6 6 < : 6 y p.k.a.#.E i ",
"- & % o o o o o % - - : - & - 2 4 5 9 r t t t w D ! ! ! 9.9. .E } } #.} 9.9.9.D l t 0 6 2 : - = * * : 6 7 4 5 [ a.#.} [ ",
"o o & & - - - : 2 2 2 2 2 6 8 p l i j u V T ! ! y i i i i i E E E o.} } } 9.9. .8.I t 0 0 6 1 : * # * ; < 5 5 9 p.#.9.E ",
"- - < < 1 1 1 : 4 6 7 0 t a c c D V i i V i i i y y i i D ! i ! ! i 9.E  .E D ! ! ! D i t w 5 4 4 ; * o # 4 < < 6 Y j.i.",
"1 2 4 1 1 4 4 6 0 t a I I I v z i i y i u y i i i u i i T V ! i V i ! ! 9. .! ! ! ! ! V i u w 5 4 4 1 = @ % & 2 1 7 a u.",
"6 7 9 w w t y D D D D D V y y t u t u u y u i y i i y V i i i i y i i V ! ! ! ! ! ! ! ! i T y t 7 6 6 : = % @ * 6 1 6 a ",
"j v D D D V j D j D y t u t t t t t u t y i y y y u y u y i i i i i i i i i i i i ! ! i ! ! D y u 7 6 1 6 - * + = : 4 1 ",
"#.o.{ D D i y t y y t t t t u u t r u u u y u y u y u y u i V u i V i i i y i i i ! V i ! ! i i j t e 9 6 < 1 * X * 6 2 "
};
