/* XPM */
static char *_836e2b0318a4439e753df84fb063bcdJEYkvUKmyZUwkFVP[] = {
/* columns rows colors chars-per-pixel */
"49 59 15 1 ",
"  c None",
". c #221C35",
"X c #1C2B35",
"o c #234B1B",
"O c #747A00",
"+ c #2B2343",
"@ c #3A2F5A",
"# c #2A4150",
"$ c #3C5C71",
"% c #5EBE4B",
"& c #AEB800",
"* c #6754A0",
"= c #5E978E",
"- c #FAFFA5",
"; c #FDFFD6",
/* pixels */
"                                                 ",
"          *                          *           ",
"         .**                        **.          ",
"         .@**                      **@.          ",
"        .@@@**                    **@@@.         ",
"        .@@@***                  ***@@@.         ",
"        .@@@@***                ***@@@@.         ",
"       .+@@@@@***              ***@@@@@+.        ",
"       .+@@@@@********************@@@@@+.        ",
"       .+@@@@@@******************@@@@@@+.        ",
"       .+@@@@@@**@@@@@@@@@@@@@@**@@@@@@+.        ",
"       .+@@@+@*@@@@@@@@@@@@@@@@@@*@@@@@+.        ",
"       .++@+*@@@@@@@@@@@@@@@@@@@@@@+@@@+.        ",
"       .+++*@@@@@@@@@@@@@@@@@@@@@@@*+@++.        ",
"       .+++*@@@@@@@@@@@@@@@@@@@@@@@@*+++.        ",
"        .+*@@@@@@@@**********@@@@@@@*++.         ",
"        ..@@@@@@@**&&&&&&&&&&**@@@@@@*..         ",
"        .@@@@@@**&&&&&&&&&&&&&&**@@@@@@.         ",
"       .@@@@@@*&&&&&&&&&&&&&&&&&&*@@@@@@.        ",
"       .@@@@@*&&&&&-OO----OO&&&&&&*@@@@@.        ",
"      .@@@@@@*&&&-------------&&&&*@@@@@@.       ",
"     .@@@@@@@*&&----------------&&*@@@@@@@.      ",
"    .@@@@@@@&&--OO%o;------;o%OO--&.@@@@@@@.     ",
"   .++@@@@@.&--;;%%o%;----;%o%%;;--&.@@@@@++.    ",
"    ..++@@@.&----;%o%%----%%o%;----&.@@@++..     ",
"      ..++++.&---------;;---------&.++++..       ",
"        ..+++.&--------OO--------&.+++..         ",
"          .....&----------------&.....           ",
"               ...------------...                ",
"                  ............                   ",
"                 .++X##XX##X++.                  ",
"                .++X=$#XX#$=X++.       -;        ",
"               .++X==$X&&X$==X++.     ---;       ",
"              .+++X=$#X&&X#$=X+++.     --;       ",
"              .+++X##X&&&&X##X+++.     &--       ",
"             .@@@++XX&&--&&XX++@@@.    &--       ",
"             .@@@@+.&&----&&.+@@@@.    &-&       ",
"            .@@@@@.&&------&&.@@@@@.  O--        ",
"            .@@@@.&&--------&&.@@@@.OO&&O        ",
"           .@@@@@.&----------&.@@@@@.&&O         ",
"           .@@@@@.------------.@@@@@.&O          ",
"           .@@@@.--&--------&--.@@@@.O           ",
"          .+@@@@.--&--;&&;--&--.@@@@+.           ",
"          .+@@@@.--&O-;&&;-O&--.@@@@+.           ",
"         .++@@@@.---O;;OO;;O---.@@@@++.          ",
"        .++@@@@@.---&O;OO;O&---.@@@@@++.         ",
"       .+@@@@@@.&----&OOOO&----&.@@@@@++.        ",
"      .@@@@@+@@.&-----&&&&-----&.@@+@@@@+.       ",
"    ..@@@@@@@@@.&--------------&.@@@@@@@@@..     ",
"  ..@@@@+@@@@@@.&--------------&.@@@@@@+@@@@..   ",
" .@@@@@@@@@+@@@.&--------------&.@@@+@@@@@@@@@.  ",
".@@@@@+@@@@@@@@.&--------------&+@@@@@@@@+@@@@@. ",
" ..@@+@@@@+@@@@+.-----;;;;-----.+@@@@+@@@@+@@..  ",
"   ..++@@++@@@@+.-----&&&&-----.+@@@@++@@++..    ",
"     ..+++++++++.&---&OOOO&---&.+++++++++..      ",
"       ...++++++.&&--O    O--&&.++++++...        ",
"          ...... O&&&O    O&&&O ......           ",
"                 O;;;O    O;;;O                  ",
"                  OOO      OOO                   "
};
