/* XPM */
static char *f639602d35774a34da79bdce3e67b746jtbR5aLrxHm8odek[] = {
/* columns rows colors chars-per-pixel */
"65 80 8 1 ",
"  c None",
". c #161412",
"X c #1B211B",
"o c #28211F",
"O c #393132",
"+ c #4C3F3B",
"@ c #5D5F4F",
"# c #9C9D80",
/* pixels */
"                                                                 ",
"                                  oo                             ",
"                                 o##o                            ",
"                                 o##o                            ",
"                                o####o                           ",
"                               o+@@@#oo                          ",
"                               .oo+@##+o                         ",
"                              .+oO+@##@o                         ",
"                             .+ooO+@@##@o                        ",
"                            .OooOO++@@#+o                        ",
"                            .ooOOO++@@#+o                        ",
"                           .+ooOOO++@@+OOo                       ",
"                           .+ooo.OO++@@OO.                       ",
"                          o+..oo.oO++OOO..                       ",
"                          o+o......ooo..+.                       ",
"                         oOoooo..ooo@@@@+@.                      ",
"                         oOoooo@@@@@@@@@@+o                      ",
"                        .OooooOOO##@@#####+o                     ",
"                        .OooooOOO@@######@+o                     ",
"                       .OOoOoOOOO++++++@@++o                     ",
"                       .oooOooOOO++++++@@++o                     ",
"                       .ooOOOoOOO++++++@@++o                     ",
"                       .ooOOooOOO++++++@@++o                     ",
"                      oo..ooooOOOO+++++@++o@o                    ",
"                    oo@@@..oooOOOO+++++oooo@+o                   ",
"                 ooo@@@@@o...oOOOOO+oooo##@@++o                  ",
"               oo@@@@@@@++oo.....oooo@@@##@@@@o                  ",
"              o#@@@@@@+++++oOOOO+++++@@@###@++o                  ",
"              o#@@@@@@+@@+++++O+oOO++++@@##@++.                  ",
"              o###@@@@@@@@@++OOooO++++++@@oo++.                  ",
"             o+++##@@@@++@@++OOOoOO@@@@+++@@ooo                  ",
"             o+@@+#@@@@++@@@@@@OOo@@@@@###@@@@@oo                ",
"             o+@@@+##@@@@@@@@@@@+@@@@@@@###@@@@@#o               ",
"             o+##@++@#@@@@@@@@@@++@@++@@@##@@@@##o               ",
"             o+##@+++@#######@@@@@@@++@@@@@@@@###o               ",
"            .++##@+++@#OOOOO#######@@@@@@@@@###+++o              ",
"            .++@#@+++@#OOOO++o.OOo######@@@###+@@+o              ",
"            .++@#@+++@OOOOO+oo.OOoooOO@@@####+@@@+o              ",
"            .+++@@++++OOOO+ooo.+OOooOO@@###@++@##+o              ",
"           .++++@@++++OOOO+ooo.+OOoooOO@##@+++@##+o              ",
"           .oo++++++++OOOO+oo.++OoooooOOO#@+++@##++.             ",
"           .@ooo+++++OOOOO.oo.+OOoooooOOO#@+++@#@++.             ",
"          o@@@@@ooooo.oOOO.o..+OOoooooOOOO@+++@#@++.             ",
"          o@###@@@@@@.ooOO.o..+OOoooooOOOO++++@@+++.             ",
"         o@@########+.........ooOooo..OOOO++++@@++++.            ",
"        o@@#####@@+++.oooooO...ooo.oo.OOOO++++++++oo.            ",
"        o@###@@@++++OooooOOO.o..o..oooOOOOO+++++ooo@.            ",
"        o##@@@@@++++OOOO+OOo.oOO......ooOo.ooooo@@@@+o           ",
"        o##@@@@+++++OOO++OOo.++OOOO....Ooo.@@@@@@@@++o           ",
"       o#@@@+@++++++OOO+++O..++ooOOO....OOOO++@###@@++o          ",
"       o@@@++@+++++++OOO++O.o++ooo++OOoooOOOO++@###@+++o         ",
"      o@@@++++++++++OOOO+OO.o++Oooo+++OOoooOOO++@##@+++o         ",
"      .@@+++++++OOOOOOOO+OO.+++Oooooo++OOOOOO+++###@+++o         ",
"     .+++++++++OOOoOOOOOOOO.++OOoooooO++OOOO+++@@#@++++o         ",
"    .+++++++OOOOooooO.oOOOO.+OOoooooOOO+++OO+++@@@@+++++o        ",
"    .+OOOOOOOOOo.ooo.+oOOO..+OOoo.ooOOOO+++++++@@@@+++++o        ",
"    ....ooOOoooo..o..++.OO.o+OOoo.oooOOOOO+++++++@@@+++++o       ",
"   o++@@#oooooooo....O@+.O.ooOOoo.ooOOOOO+++O++++@@@+++++.       ",
"  Xo@@@@#@++ooooo...oO@+....oooo..ooOOOOO++OO++++@@@++++++.      ",
" XXo+@###@@@+++....+oO#@ooo..oo..oooOOOOOoOO++++++@@+++++++.     ",
" XXo+###@@@@@@@@@.++OO#@oo+oo...ooooOOOOOoO++++++++++++++++.     ",
" XXo###@@++OO@@@@.+oOO@@oo++ooo...oooOOOOoo+++++++++++oo....     ",
" Xo+##@@++OOOO@@O.+oOo+@@o++ooo..O...OOOOoo+++++++++ooo@@@++o    ",
"XXo+#@@++++OOOOO..oooo+@@++OOooo.OOO......ooo+++oooo++@@@@@@oXX  ",
" .++#@++++++OOOO...oo+++@+OOOooo.OOOOOOO++++ooooo+++####@@@+oXXX ",
" .+++++++++++OO...o...ooo+OOOOoo..oOOOOOOOO++++@@@@####@@@++oXXX ",
"XX..++++++++++O...oOOOOO#oOOOOoo..oooOOOOOO+@@@@@@######++++oXX  ",
"XXX.....++++++..ooooOO+@#@oooOoo.ooooOOOOO++++++@#####@@+++++oX  ",
" XXXXXX..oooo+.oooooOO++@@.ooooo.ooooOOOOO++O++++@@####@@++++oX  ",
"   XXXXXXXXXo...ooooOO+++@..oooooooooOOOOO++OO++++@@###@@+++++   ",
"     XXXXXXX.oO...ooOO+++@o..ooooooo.OOOOO+OOOO++++@@##@@+++++   ",
"            .oOOo....OOoo@ooooooooo..OOOOO+OOOO+++++@@#@@+++..X  ",
"         XXX.oOooO..Oooo@..oooooo....OOOOO+O++++++++++++.....X   ",
"          XX.ooooOOOOOO++#..ooooooo..OOOOo+++++++++oooo..XXXX    ",
"           XX..oooOOOO+++@@+..ooooo.OOOOooooo+ooooooXXXXXXXXX    ",
"             X..ooooOO+++@OOO.......oooo.....ooXXXXXXXXXXXX      ",
"            XXX.ooooOOOOO..oooXX..........XXXXXX                 ",
"          XXXXXX.........XXXXXXXXXXX..XXXXXXXXXXXXXXX            ",
"                  XXXXXXXXXX      XXXXXXXXXXX                    ",
"                                                                 "
};
